<?xml version="1.0" encoding="UTF-8" standalone="no"?>
<!-- Created with Inkscape (http://www.inkscape.org/) -->

<svg
   xmlns:osb="http://www.openswatchbook.org/uri/2009/osb"
   xmlns:dc="http://purl.org/dc/elements/1.1/"
   xmlns:cc="http://creativecommons.org/ns#"
   xmlns:rdf="http://www.w3.org/1999/02/22-rdf-syntax-ns#"
   xmlns:svg="http://www.w3.org/2000/svg"
   xmlns="http://www.w3.org/2000/svg"
   xmlns:xlink="http://www.w3.org/1999/xlink"
   xmlns:sodipodi="http://sodipodi.sourceforge.net/DTD/sodipodi-0.dtd"
   xmlns:inkscape="http://www.inkscape.org/namespaces/inkscape"
   width="194mm"
   height="198mm"
   viewBox="0 0 194 198"
   version="1.1"
   id="svg8"
   inkscape:version="0.92.5 (2060ec1f9f, 2020-04-08)"
   sodipodi:docname="final.svg"
   inkscape:export-filename="/home/ahamed/drawing.png"
   inkscape:export-xdpi="96"
   inkscape:export-ydpi="96">
  <defs
     id="defs2">
    <linearGradient
       inkscape:collect="always"
       id="linearGradient2918">
      <stop
         style="stop-color:#000000;stop-opacity:1;"
         offset="0"
         id="stop2914" />
      <stop
         style="stop-color:#000000;stop-opacity:0;"
         offset="1"
         id="stop2916" />
    </linearGradient>
    <linearGradient
       id="linearGradient2556"
       osb:paint="solid">
      <stop
         style="stop-color:#35293b;stop-opacity:1;"
         offset="0"
         id="stop2554" />
    </linearGradient>
    <linearGradient
       id="linearGradient2316"
       osb:paint="solid">
      <stop
         style="stop-color:#005090;stop-opacity:1;"
         offset="0"
         id="stop2314" />
    </linearGradient>
    <linearGradient
       inkscape:collect="always"
       xlink:href="#linearGradient2918"
       id="linearGradient2920"
       x1="67.1942"
       y1="238.83524"
       x2="98.107679"
       y2="238.83524"
       gradientUnits="userSpaceOnUse" />
  </defs>
  <sodipodi:namedview
     id="base"
     pagecolor="#ffffff"
     bordercolor="#666666"
     borderopacity="1.0"
     inkscape:pageopacity="0.0"
     inkscape:pageshadow="2"
     inkscape:zoom="1.1198022"
     inkscape:cx="279.54522"
     inkscape:cy="154.75545"
     inkscape:document-units="mm"
     inkscape:current-layer="layer1"
     showgrid="false"
     inkscape:window-width="1848"
     inkscape:window-height="1016"
     inkscape:window-x="72"
     inkscape:window-y="27"
     inkscape:window-maximized="1">
    <inkscape:grid
       type="xygrid"
       id="grid887" />
  </sodipodi:namedview>
  <metadata
     id="metadata5">
    <rdf:RDF>
      <cc:Work
         rdf:about="">
        <dc:format>image/svg+xml</dc:format>
        <dc:type
           rdf:resource="http://purl.org/dc/dcmitype/StillImage" />
        <dc:title></dc:title>
      </cc:Work>
    </rdf:RDF>
  </metadata>
  <g
     inkscape:label="Layer 1"
     inkscape:groupmode="layer"
     id="layer1"
     transform="translate(0,-99)">
    <flowRoot
       xml:space="preserve"
       id="flowRoot2906"
       style="font-style:normal;font-weight:normal;font-size:40px;line-height:1.25;font-family:sans-serif;letter-spacing:0px;word-spacing:0px;fill:#000000;fill-opacity:1;stroke:none"
       transform="translate(-8.7313599,2.0329154)"><flowRegion
         id="flowRegion2908"><rect
           id="rect2910"
           width="50.008831"
           height="58.93898"
           x="332.20154"
           y="348.27579" /></flowRegion><flowPara
         id="flowPara2912" /></flowRoot>    <g
       id="g973">
      <g
         id="g957">
        <ellipse
           style="fill:#0000d4;fill-opacity:0.51470588;stroke:#3b00bb;stroke-width:0.26458332;stroke-opacity:0.17647059"
           id="path61"
           cx="99.330872"
           cy="-204.70685"
           rx="75.608589"
           ry="45.483295"
           transform="scale(1,-1)" />
      </g>
      <g
         transform="translate(0.94510735,1.4176607)"
         id="g954">
        <g
           id="g40"
           transform="matrix(0.70134361,0,0,1.0016063,30.129609,-2.3481821)">
          <path
             sodipodi:nodetypes="ccsccccccsscssssssssscsscccccccccccccccccccccccccccccccccccccccscc"
             inkscape:connector-curvature="0"
             id="path3724"
             d="m 6.4235811,202.90876 5.2916679,0.37798 c 0,0 4.292393,0.39147 6.425597,0.18899 2.312784,-0.21952 6.803571,-1.51191 6.803571,-1.51191 l 8.504465,-1.88988 7.9375,-1.13393 -8.315478,-2.45684 h 9.260417 l 10.394346,-3.40179 c 0,0 4.864528,-1.80362 7.370535,-2.45684 1.303158,-0.33968 2.836265,-0.8028 4.181647,-0.86241 1.264964,-0.056 3.353969,0.0586 3.353969,0.0586 0,0 3.281619,0.73757 4.74861,1.18174 1.32233,0.40037 2.663723,0.88646 3.779763,1.7009 0.684614,0.4996 1.235516,1.18156 1.700893,1.88988 0.913234,1.38998 1.344814,3.04333 2.078868,4.53571 0.596983,1.21371 -0.150042,3.85059 0.485574,5.04452 0.437093,0.82103 0.559457,1.59448 1.424016,1.93752 2.07984,0.82524 3.391999,0.52288 4.393834,1.10056 1.394562,0.80414 2.964292,1.0783 4.090922,2.12276 1.141,1.05778 2.031124,2.47224 2.456844,3.96875 0.44816,1.57539 0,4.91369 0,4.91369 0,0 -1.166842,3.10256 -2.031622,4.44122 -0.604767,0.93616 -1.111118,1.61412 -1.937127,2.36235 -1.124415,1.01854 -2.111224,2.2262 -3.401785,3.02381 -1.154313,0.7134 -3.779764,1.5119 -3.779764,1.5119 L 79.184,229.93402 v 0 l -2.173363,0.0472 4.441221,-4.39398 0.566962,-0.37797 -5.953124,1.74813 -6.142112,1.46467 4.960935,-4.72471 -6.756323,2.03162 -6.04762,1.37017 8.976935,-7.9375 -8.40997,3.07106 -3.543525,1.27566 -7.087055,2.5041 4.393974,-3.54353 2.433222,-2.50409 -4.866444,0.61421 -4.323102,0.35435 -5.646019,0.0945 h -4.535714 l 2.409598,-0.96856 4.51209,-1.86627 6.331101,-2.62221 -8.249626,1.5054 -5.364593,0.76451 -3.334452,-0.0422 -3.65103,-0.90477 -2.355275,-0.82534 4.434143,-1.18118 4.973947,-1.49181 4.28647,-1.60435 -13.181008,2.10306 -4.720593,-0.57906 -3.83203,-1.33501 -3.43374,-1.30693 12.127191,-2.85081 -9.82738,0.18899 c 0,0 -4.871071,-0.0809 -7.181548,-0.75595 -1.352105,-0.39505 -3.7797644,-1.88988 -3.7797644,-1.88988 z"
             style="fill:#000080;stroke:#ffffff;stroke-width:0.26458332px;stroke-linecap:butt;stroke-linejoin:miter;stroke-opacity:1" />
          <path
             style="fill:#000080;fill-opacity:1;stroke:#ffffff;stroke-width:0.26499999;stroke-linecap:butt;stroke-linejoin:miter;stroke-miterlimit:4;stroke-dasharray:none;stroke-opacity:1"
             d="m 188.53357,203.33777 -5.29167,0.37797 c 0,0 -4.29241,0.39147 -6.42562,0.18899 -2.31278,-0.21953 -6.80359,-1.5119 -6.80359,-1.5119 l -8.50447,-1.88986 -7.93753,-1.13391 8.31551,-2.45683 h -9.26044 l -10.39437,-3.40177 c 0,0 -4.86455,-1.8036 -7.37055,-2.45681 -1.30316,-0.33967 -2.83628,-0.8028 -4.18165,-0.86241 -1.26497,-0.056 -3.35398,0.0586 -3.35398,0.0586 0,0 -3.28163,0.73757 -4.74862,1.18174 -1.32233,0.40037 -2.66373,0.88646 -3.77977,1.70088 -0.68462,0.4996 -1.23553,1.18155 -1.7009,1.88986 -0.91324,1.38996 -1.34482,3.0433 -2.07887,4.53567 -0.59699,1.21371 0.15003,3.85056 -0.48558,5.04447 -0.43709,0.82103 -0.55945,1.59448 -1.42401,1.93751 -2.07985,0.82524 -3.39201,0.52287 -4.39384,1.10055 -1.39458,0.80413 -2.96431,1.0783 -4.09095,2.12273 -1.14099,1.05778 -2.03112,2.47222 -2.45685,3.96872 -0.44815,1.57538 0,4.91364 0,4.91364 0,0 1.16686,3.10254 2.03163,4.4412 0.60478,0.93614 1.11113,1.6141 1.93714,2.36232 1.12441,1.01853 2.11122,2.22618 3.40178,3.02378 1.15433,0.7134 3.77978,1.51189 3.77978,1.51189 l 2.45684,0.37798 v 0 l 2.17337,0.0472 -4.44123,-4.39393 -0.56696,-0.37797 5.95314,1.74812 6.14213,1.46465 -4.96095,-4.72467 6.75633,2.03161 6.04763,1.37015 -8.97695,-7.93742 8.41,3.07102 3.54354,1.27566 7.08706,2.50407 -4.39398,-3.5435 -2.43324,-2.50406 4.86646,0.6142 4.32312,0.35434 5.64602,0.0945 h 4.53573 l -2.40961,-0.96856 -4.5121,-1.86625 -6.33111,-2.62219 8.24964,1.5054 5.36461,0.7645 3.33446,-0.0422 3.65103,-0.90478 2.35528,-0.82533 -4.43414,-1.18118 -4.97397,-1.49179 -4.28648,-1.60434 13.18104,2.10305 4.72061,-0.57906 3.83204,-1.33499 3.43374,-1.30693 -12.12721,-2.85078 9.82739,0.18899 c 0,0 4.87108,-0.0808 7.18158,-0.75595 1.3521,-0.39503 3.77976,-1.88985 3.77976,-1.88985 z"
             id="path3726-6"
             inkscape:connector-curvature="0"
             sodipodi:nodetypes="ccsccccccsscssssssssscsscccccccccccccccccccccccccccccccccccccccscc" />
          <ellipse
             inkscape:transform-center-y="-5.9069212"
             inkscape:transform-center-x="3.7804296"
             ry="21.264915"
             rx="27.880669"
             cy="202.60248"
             cx="97.04335"
             id="path18"
             style="fill:#000080;fill-opacity:1;stroke:#ffffff;stroke-width:0.26499999;stroke-miterlimit:4;stroke-dasharray:none;stroke-opacity:1" />
          <text
             transform="scale(1.183353,0.84505637)"
             id="text2904"
             y="257.83362"
             x="61.144711"
             style="font-style:normal;font-variant:normal;font-weight:normal;font-stretch:normal;font-size:77.68196869px;line-height:1.25;font-family:'Abyssinica SIL';-inkscape-font-specification:'Abyssinica SIL, Normal';font-variant-ligatures:normal;font-variant-caps:normal;font-variant-numeric:normal;font-feature-settings:normal;text-align:start;letter-spacing:0px;word-spacing:0px;writing-mode:lr-tb;text-anchor:start;fill:#000080;fill-opacity:0.27941176;stroke:#ffffff;stroke-width:1.94204903;stroke-opacity:1;paint-order:stroke fill markers"
             xml:space="preserve"><tspan
               style="font-style:normal;font-variant:normal;font-weight:normal;font-stretch:normal;font-size:77.68196869px;font-family:'Abyssinica SIL';-inkscape-font-specification:'Abyssinica SIL, Normal';font-variant-ligatures:normal;font-variant-caps:normal;font-variant-numeric:normal;font-feature-settings:normal;text-align:start;writing-mode:lr-tb;text-anchor:start;fill:#000080;fill-opacity:0.27941176;stroke:#ffffff;stroke-width:1.94204903;stroke-opacity:1;paint-order:stroke fill markers"
               y="257.83362"
               x="61.144711"
               id="tspan2902"
               sodipodi:role="line">c</tspan></text>
          <path
             transform="matrix(0.26458333,0,0,0.26458333,0,99)"
             inkscape:connector-curvature="0"
             id="path3210"
             d="m 358.97833,470.98081 c -35.10447,-1.8925 -67.12149,-17.62593 -84.10029,-41.32757 -3.61616,-5.04801 -7.74223,-13.02788 -9.55643,-18.48231 -4.28758,-12.89065 -4.12451,-27.49418 0.45126,-40.41149 9.58446,-27.05673 37.9932,-48.79263 73.20802,-56.0124 10.62176,-2.17768 13.96805,-2.4763 27.68346,-2.47047 14.16272,0.006 18.60893,0.42511 29.02298,2.73569 35.80201,7.94343 63.43219,29.63728 72.47069,56.90039 2.30842,6.96296 3.13014,12.0926 3.14125,19.60939 0.0112,7.59789 -0.80761,12.79934 -3.08781,19.61432 -9.9418,29.71365 -41.4407,52.47669 -81.00764,58.54107 -4.69534,0.71965 -20.81081,1.96506 -21.879,1.69081 -0.12279,-0.0315 -2.9787,-0.20587 -6.34649,-0.38743 z m 19.35953,-19.19355 c 11.98179,-1.19141 26.19075,-4.70972 41.79575,-10.34914 l 3.68369,-1.33123 v -7.14966 c 0,-5.55312 -0.12464,-7.09479 -0.55814,-6.90391 -10.28325,4.52781 -20.20391,7.72707 -28.91135,9.3235 -7.07367,1.29689 -23.88077,1.39454 -30.5403,0.17745 -12.27985,-2.24425 -21.35506,-6.64619 -28.99829,-14.06566 -9.23063,-8.96037 -13.74496,-20.35099 -13.73445,-34.6549 0.0136,-18.46696 7.24584,-33.07176 20.68181,-41.76475 6.8592,-4.43787 14.00328,-6.75538 23.3504,-7.57479 6.28576,-0.55104 10.72634,-0.079 16.06886,1.70796 l 3.57206,1.19481 0.11955,10.82513 0.11957,10.82513 1.66646,0.71717 c 5.75792,2.47795 7.86297,2.95812 13.94543,3.18105 7.01366,0.25705 9.97742,-0.31738 14.86918,-2.88193 5.46496,-2.86505 7.74774,-6.83266 7.35843,-12.78938 -0.73244,-11.20658 -12.96704,-18.92015 -35.62283,-22.4592 -7.26561,-1.13495 -27.89162,-1.1493 -35.27409,-0.0245 -17.85019,2.71958 -32.37504,8.23407 -43.58486,16.54738 -4.6816,3.47192 -11.30433,10.33838 -14.21718,14.74041 -5.98193,9.04014 -8.72985,18.88089 -8.72577,31.2483 0.004,11.62406 2.88336,21.62276 8.83581,30.68102 10.74922,16.35786 31.17242,27.57948 55.57456,30.53569 6.08982,0.73776 22.1767,0.87542 28.5257,0.2441 z"
             style="opacity:1;fill:#000080;fill-opacity:0.27941176;stroke:#ffffff;stroke-width:0.44721058;stroke-miterlimit:4;stroke-dasharray:none;stroke-dashoffset:45.54330826;stroke-opacity:1;paint-order:stroke fill markers" />
          <path
             transform="matrix(0.26458333,0,0,0.26458333,0,99)"
             inkscape:connector-curvature="0"
             id="path3222"
             d="m 301.75955,485.50956 c 4.79587,-4.71622 8.56188,-8.73284 8.36891,-8.9258 -0.19297,-0.19297 -5.82179,1.24873 -12.50851,3.20378 -13.12728,3.83814 -28.79185,7.69629 -29.27723,7.21091 -0.16519,-0.1652 3.31963,-3.73278 7.74406,-7.92797 5.88841,-5.58331 7.78061,-7.72884 7.06011,-8.00533 -0.54138,-0.20774 -6.63538,1.32681 -13.54223,3.41011 -12.56007,3.78849 -29.37199,7.94296 -30.52583,7.54338 -0.33682,-0.11665 6.32496,-6.32095 14.80396,-13.78733 9.25986,-8.154 15.18691,-13.80471 14.84179,-14.14982 -0.34511,-0.34511 -4.93505,1.00896 -11.49358,3.39069 -27.11671,9.84745 -54.47479,19.59845 -54.98678,19.59845 -0.30846,0 2.51879,-2.51755 6.28277,-5.59456 6.44747,-5.27072 15.75468,-14.43614 15.21128,-14.97953 -0.13622,-0.13623 -4.63207,0.30768 -9.99079,0.98643 -5.35871,0.67877 -13.29506,1.51209 -17.63633,1.85184 -9.1325,0.71471 -42.77657,1.61604 -42.30761,1.13342 0.17365,-0.17871 10.40326,-4.49405 22.73245,-9.58966 12.3292,-5.0956 22.6546,-9.4954 22.94533,-9.77732 1.3985,-1.35608 -1.844,-1.04382 -15.75836,1.51756 -24.1871,4.45239 -33.06486,5.61902 -41.60137,5.46682 -7.67479,-0.13684 -15.76965,-1.62079 -23.61385,-4.32889 l -3.40722,-1.17631 5.61732,-1.46818 c 20.21211,-5.2828 43.82047,-13.34553 43.82047,-14.96556 0,-0.59004 -0.46771,-0.76977 -1.42078,-0.54599 -0.78143,0.18347 -12.08675,2.03335 -25.12295,4.11083 l -23.70218,3.77725 -9.13358,-1.18239 c -8.155074,-1.05572 -10.408453,-1.64488 -21.033524,-5.49932 -8.594084,-3.11766 -11.576253,-4.4492 -10.734767,-4.79307 0.640848,-0.26187 9.831924,-2.48778 20.424613,-4.94647 22.621758,-5.25076 21.469538,-4.93943 21.469538,-5.80096 0,-0.47671 -5.78265,-0.57983 -19.417304,-0.34625 -31.080034,0.53242 -41.857413,-0.6254 -51.645188,-5.54829 -5.091304,-2.56074 -17.097199,-10.84556 -16.533564,-11.40919 0.121165,-0.12117 5.743104,0.19845 12.493197,0.71026 23.448933,1.77796 32.223991,1.20118 48.581666,-3.19324 13.792603,-3.70534 37.934883,-8.68377 52.023903,-10.72798 8.29603,-1.20369 15.32888,-2.18852 15.62856,-2.18852 0.29968,0 0.54488,-0.35578 0.54488,-0.79061 0,-0.48537 -5.03427,-2.25286 -13.03948,-4.57806 l -13.03949,-3.78746 15.72318,-0.31573 15.72317,-0.31572 31.27471,-10.55199 c 37.37672,-12.61079 44.07379,-14.39056 54.14989,-14.39056 6.07053,0 8.51473,0.33743 16.118,2.22513 4.9293,1.22382 9.87201,2.51999 10.98382,2.88037 l 2.02145,0.65524 -2.90974,4.22352 c -3.99077,5.79266 -8.65351,15.76998 -10.38417,22.22004 -1.22964,4.5828 -1.43739,6.89039 -1.42119,15.78642 0.0159,8.70671 0.24555,11.24926 1.39763,15.47069 1.86949,6.85018 7.33845,17.8606 11.91869,23.99537 12.49295,16.73305 34.96544,30.73985 58.29145,36.33229 3.29936,0.79102 6.23294,1.6418 6.51907,1.89061 0.65173,0.56673 -13.58244,14.59822 -17.32692,17.08019 -5.78903,3.83717 -18.64825,7.47745 -26.4481,7.48711 l -3.47302,0.004 8.71977,-8.57495 z"
             style="opacity:1;fill:#000080;fill-opacity:0.98039216;stroke:#ffffff;stroke-width:0.63245124;stroke-miterlimit:4;stroke-dasharray:none;stroke-dashoffset:45.54330826;stroke-opacity:1;paint-order:stroke fill markers" />
          <path
             transform="matrix(0.26458333,0,0,0.26458333,0,99)"
             inkscape:connector-curvature="0"
             id="path3224"
             d="m 352.71246,470.05692 c -36.0271,-3.78803 -67.68719,-22.23863 -81.76466,-47.6501 -6.28409,-11.34352 -8.6833,-21.50584 -8.02852,-34.00645 0.89639,-17.1134 7.5988,-31.11043 21.50885,-44.9181 15.69715,-15.58163 36.29755,-25.42329 62.08112,-29.6587 9.5235,-1.5644 37.11731,-1.06514 45.66926,0.8263 35.00744,7.74264 60.14445,24.87689 71.99501,49.07425 18.66275,38.10702 -2.98143,80.17941 -50.73639,98.62239 -17.40258,6.72088 -41.28957,9.7539 -60.72467,7.71041 z m 37.92975,-19.73297 c 8.96607,-1.91969 20.47379,-5.17861 28.21535,-7.99043 l 5.52525,-2.00683 -0.01,-6.41271 c -0.005,-3.527 -0.2531,-6.79686 -0.55062,-7.26637 -0.43338,-0.6839 -2.05416,-0.27791 -8.15047,2.04161 -15.49428,5.89524 -26.35492,7.75031 -41.80579,7.14069 -6.7528,-0.26643 -10.76085,-0.77294 -15.26973,-1.92968 -17.83714,-4.57607 -30.66139,-16.52861 -35.35159,-32.94861 -1.99798,-6.99475 -2.00004,-21.52946 -0.004,-28.88969 5.78833,-21.34512 22.87973,-34.03845 45.8895,-34.08093 5.44512,-0.0101 7.86703,0.2852 11.20835,1.36643 l 4.26234,1.37926 v 10.69318 10.69318 l 1.73651,0.87785 c 4.71042,2.38126 8.74017,3.19556 15.94428,3.22193 6.65645,0.0244 7.57757,-0.12058 11.0505,-1.73885 6.74893,-3.14477 9.78758,-7.12234 9.78758,-12.81186 0,-5.11535 -1.20785,-7.82666 -5.33989,-11.98675 -5.86219,-5.90195 -15.40836,-9.78477 -29.58851,-12.03484 -9.30194,-1.476 -35.05345,-0.90219 -43.37225,0.96645 -13.17696,2.95992 -26.22705,8.13329 -33.99038,13.4746 -3.75264,2.58188 -9.66729,8.01293 -13.58673,12.47583 -14.27808,16.25784 -16.31841,43.79923 -4.7572,64.21519 3.21395,5.67552 12.08914,15.07064 17.91991,18.96968 10.84224,7.25024 23.94006,11.95865 39.78178,14.30077 1.0419,0.15404 8.85618,0.19734 17.36506,0.0962 13.82337,-0.16428 16.28206,-0.35757 23.09052,-1.81532 z"
             style="opacity:1;fill:#000080;fill-opacity:0.98039216;stroke:#ffffff;stroke-width:0.63245124;stroke-miterlimit:4;stroke-dasharray:none;stroke-dashoffset:45.54330826;stroke-opacity:1;paint-order:stroke fill markers" />
          <path
             transform="matrix(0.26458333,0,0,0.26458333,0,99)"
             inkscape:connector-curvature="0"
             id="path3226"
             d="m 351.13381,451.17572 c -14.35074,-1.48695 -28.98824,-6.62366 -40.09751,-14.07134 -5.8309,-3.90905 -14.23352,-12.72738 -17.61002,-18.48126 -1.61825,-2.75765 -3.85046,-7.71339 -4.96046,-11.01275 -1.97012,-5.85593 -2.01851,-6.26962 -2.03112,-17.36506 -0.0149,-13.07695 0.56317,-15.94913 5.08328,-25.25828 2.89679,-5.96593 6.73895,-10.82698 13.37163,-16.91759 9.32822,-8.56584 23.23399,-14.96012 40.20148,-18.4858 9.25411,-1.92291 27.78911,-2.71713 38.24703,-1.63888 14.0842,1.45215 27.18184,6.03306 33.25479,11.63091 9.32558,8.59602 7.18738,20.01647 -4.57478,24.43466 -3.28944,1.2356 -4.64581,1.37368 -11.31495,1.15184 -6.27847,-0.20884 -8.22699,-0.52265 -11.36622,-1.83054 l -3.78875,-1.5785 -0.17247,-10.78376 -0.17247,-10.78377 -1.7219,-0.69302 c -5.14625,-2.07124 -10.01253,-2.76438 -16.87686,-2.40391 -22.30081,1.1711 -38.77387,14.04383 -44.18585,34.52866 -1.65108,6.2495 -2.00794,19.97466 -0.69102,26.57777 3.75794,18.84268 18.79404,32.9136 39.82521,37.26882 7.27213,1.50594 25.34575,1.64879 33.22664,0.26261 5.79006,-1.01841 15.32985,-3.86438 22.51587,-6.71708 2.52698,-1.00315 4.8812,-1.82391 5.23161,-1.82391 0.39851,0 0.56972,2.40314 0.45715,6.41709 l -0.17995,6.4171 -6.31457,2.14236 c -9.43215,3.20007 -21.25926,6.37561 -28.8516,7.74655 -7.8872,1.4242 -28.18736,2.12882 -36.50419,1.26708 z"
             style="opacity:1;fill:#000080;fill-opacity:0.98039216;stroke:#f1f0ff;stroke-width:0.63245124;stroke-miterlimit:4;stroke-dasharray:none;stroke-dashoffset:45.54330826;stroke-opacity:1;paint-order:stroke fill markers" />
          <path
             transform="matrix(0.26458333,0,0,0.26458333,0,99)"
             inkscape:connector-curvature="0"
             id="path3228"
             d="m 432.59175,495.05104 c -5.39974,-0.92277 -13.99584,-3.92052 -18.04249,-6.29202 -3.25892,-1.90985 -16.53739,-14.54396 -18.08752,-17.20979 l -1.08415,-1.86447 3.60998,-0.79591 c 10.08299,-2.22305 25.48711,-8.56494 34.60046,-14.24504 18.90286,-11.78164 32.41677,-28.94289 37.29755,-47.364 2.28988,-8.6425 2.44412,-21.78377 0.35413,-30.17321 -1.84214,-7.39461 -4.57067,-13.79667 -8.64784,-20.29086 l -3.35542,-5.34456 2.93767,-0.95148 c 1.61571,-0.52331 6.4896,-1.84666 10.83087,-2.94076 6.86802,-1.73092 9.00043,-1.99268 16.41788,-2.01538 11.03305,-0.0338 13.92921,0.73381 54.87279,14.54289 l 31.32107,10.5637 14.81486,0.31572 14.81487,0.31573 -11.82101,3.43919 c -12.74008,3.70658 -13.72531,4.09002 -12.75179,4.96285 0.3444,0.30878 7.16176,1.47316 15.14969,2.58752 13.75474,1.91884 34.22194,6.13136 53.72849,11.05826 17.86872,4.51323 21.08533,4.75101 42.91428,3.17228 18.70565,-1.35285 18.21117,-1.51171 11.29554,3.62908 -3.12406,2.3223 -8.39388,5.53436 -11.71071,7.13791 -9.69421,4.68675 -11.82796,4.93698 -43.02714,5.0459 -16.12734,0.0563 -27.05398,0.33183 -27.14216,0.68443 -0.0812,0.32461 9.08274,2.77778 20.36426,5.4515 11.28153,2.67371 20.9381,4.97269 21.45905,5.10885 1.31641,0.34407 -3.31807,2.32745 -14.34687,6.1399 -7.66678,2.65026 -10.91085,3.41812 -18.17315,4.30151 -8.28431,1.0077 -9.25747,1.00897 -15.4707,0.0202 -3.64666,-0.58033 -14.84417,-2.36318 -24.88334,-3.96188 -22.52236,-3.58658 -23.67017,-3.38311 -9.93419,1.76109 7.52517,2.81821 25.81311,8.43774 35.29112,10.84428 2.51794,0.63933 4.57807,1.3399 4.57807,1.55682 0,0.50637 -5.49503,2.23544 -13.19827,4.15299 -10.90627,2.71486 -21.73775,1.89418 -54.66529,-4.14191 -7.63069,-1.39884 -14.26099,-2.54333 -14.73399,-2.54333 -2.90402,0 2.10781,2.42115 22.31366,10.77943 l 22.7122,9.39505 -16.41788,0.0135 c -16.14997,0.0133 -28.6336,-0.78729 -44.98883,-2.88513 -4.25308,-0.54553 -8.03171,-0.89226 -8.39695,-0.77051 -0.86936,0.28978 10.24488,11.05462 17.01072,16.47595 2.91561,2.33621 5.1128,4.24765 4.88266,4.24765 -0.8095,0 -55.98554,-19.7488 -66.22555,-23.70369 -3.3378,-1.28912 0.43942,2.62942 14.3253,14.86127 8.47543,7.46586 15.30842,13.67573 15.18443,13.79971 -0.51175,0.51176 -21.04085,-4.59422 -32.35831,-8.04813 -7.61596,-2.32428 -12.31126,-3.47125 -12.56032,-3.06827 -0.21876,0.35396 3.20632,4.05104 7.61128,8.21573 4.40497,4.1647 7.88407,7.69715 7.73133,7.84989 -0.41245,0.41245 -22.07067,-5.03031 -32.77583,-8.23664 -5.1262,-1.53536 -9.47806,-2.5364 -9.67081,-2.22452 -0.19275,0.31187 0.59154,1.34076 1.74287,2.28642 1.15133,0.94566 5.21904,4.773 9.03936,8.50521 l 6.94602,6.78581 -3.47301,-0.0637 c -1.91016,-0.035 -5.60418,-0.4279 -8.20894,-0.87304 z"
             style="opacity:1;fill:#000080;fill-opacity:0.98039216;stroke:#ffffff;stroke-width:0.63245124;stroke-miterlimit:4;stroke-dasharray:none;stroke-dashoffset:45.54330826;stroke-opacity:1;paint-order:stroke fill markers" />
        </g>
      </g>
    </g>
  </g>
</svg>
